<?xml version="1.0" encoding="UTF-8"?>
<!DOCTYPE svg PUBLIC "-//W3C//DTD SVG 1.1//EN" "http://www.w3.org/Graphics/SVG/1.1/DTD/svg11.dtd">
<!--Generated by Origin-->
<svg xmlns="http://www.w3.org/2000/svg" xmlns:xlink="http://www.w3.org/1999/xlink" viewBox="0,0 2545,1961" width="10.604167in" height="8.170833in">
	<svg xmlns="http://www.w3.org/2000/svg" xmlns:xlink="http://www.w3.org/1999/xlink" viewBox="0,0 6360.98,4900.92" width="2542.99" height="1958.99" x="0.00024414" y="0.00012207" preserveAspectRatio="none">
		<defs>
			<linearGradient gradientUnits="userSpaceOnUse" x1="1139" y1="889" x2="5478" y2="889" gradientTransform="matrix(-1.44043e-07 0.737497 -1.35594 -3.60107e-08 6683.42 48.9906)" id="Grad_1">
				<stop offset="0" stop-color="#eff821"/>
				<stop offset="0.00392156" stop-color="#eef720"/>
				<stop offset="0.0313725" stop-color="#eef720"/>
				<stop offset="0.0352941" stop-color="#eef620"/>
				<stop offset="0.0392156" stop-color="#edf620"/>
				<stop offset="0.062745" stop-color="#edf620"/>
				<stop offset="0.0666666" stop-color="#ecf520"/>
				<stop offset="0.0823529" stop-color="#ecf520"/>
				<stop offset="0.0862745" stop-color="#ecf420"/>
				<stop offset="0.090196" stop-color="#ebf420"/>
				<stop offset="0.10196" stop-color="#ebf420"/>
				<stop offset="0.105882" stop-color="#ebf320"/>
				<stop offset="0.109803" stop-color="#eaf320"/>
				<stop offset="0.121568" stop-color="#eaf320"/>
				<stop offset="0.12549" stop-color="#eaf220"/>
				<stop offset="0.129411" stop-color="#e9f220"/>
				<stop offset="0.133333" stop-color="#e9f21f"/>
				<stop offset="0.137254" stop-color="#e9f21f"/>
				<stop offset="0.141176" stop-color="#e9f11f"/>
				<stop offset="0.145098" stop-color="#e8f11f"/>
				<stop offset="0.152941" stop-color="#e8f11f"/>
				<stop offset="0.156862" stop-color="#e7f01f"/>
				<stop offset="0.164705" stop-color="#e7f01f"/>
				<stop offset="0.168627" stop-color="#e7ef1f"/>
				<stop offset="0.172549" stop-color="#e6ef1f"/>
				<stop offset="0.17647" stop-color="#e6ef1f"/>
				<stop offset="0.180392" stop-color="#e6ee1f"/>
				<stop offset="0.184313" stop-color="#e5ee1f"/>
				<stop offset="0.188235" stop-color="#e5ee1f"/>
				<stop offset="0.192156" stop-color="#e5ed1f"/>
				<stop offset="0.196078" stop-color="#e4ed1f"/>
				<stop offset="0.199999" stop-color="#e4ed1f"/>
				<stop offset="0.203921" stop-color="#e4ec1e"/>
				<stop offset="0.207843" stop-color="#e3ec1e"/>
				<stop offset="0.211764" stop-color="#e3eb1e"/>
				<stop offset="0.215686" stop-color="#e3eb1e"/>
				<stop offset="0.219607" stop-color="#e2eb1e"/>
				<stop offset="0.223529" stop-color="#e2ea1e"/>
				<stop offset="0.22745" stop-color="#e1ea1e"/>
				<stop offset="0.231372" stop-color="#e1e91e"/>
				<stop offset="0.235294" stop-color="#e0e91e"/>
				<stop offset="0.239215" stop-color="#e0e91e"/>
				<stop offset="0.243137" stop-color="#e0e81e"/>
				<stop offset="0.247058" stop-color="#dfe81e"/>
				<stop offset="0.25098" stop-color="#dfe71e"/>
				<stop offset="0.254901" stop-color="#dee71d"/>
				<stop offset="0.258823" stop-color="#dee61d"/>
				<stop offset="0.262745" stop-color="#dde61d"/>
				<stop offset="0.266666" stop-color="#dde51d"/>
				<stop offset="0.270588" stop-color="#dce51d"/>
				<stop offset="0.274509" stop-color="#dce41d"/>
				<stop offset="0.278431" stop-color="#dbe41d"/>
				<stop offset="0.282352" stop-color="#dbe31d"/>
				<stop offset="0.286274" stop-color="#dae21d"/>
				<stop offset="0.290196" stop-color="#dae21d"/>
				<stop offset="0.294117" stop-color="#d9e11d"/>
				<stop offset="0.298039" stop-color="#d9e11c"/>
				<stop offset="0.30196" stop-color="#d8e01c"/>
				<stop offset="0.305882" stop-color="#d7e01c"/>
				<stop offset="0.309803" stop-color="#d7df1c"/>
				<stop offset="0.313725" stop-color="#d6de1c"/>
				<stop offset="0.317647" stop-color="#d6de1c"/>
				<stop offset="0.321568" stop-color="#d5dd1c"/>
				<stop offset="0.32549" stop-color="#d4dc1c"/>
				<stop offset="0.329411" stop-color="#d4dc1c"/>
				<stop offset="0.333333" stop-color="#d3db1b"/>
				<stop offset="0.337254" stop-color="#d2da1b"/>
				<stop offset="0.341176" stop-color="#d2da1b"/>
				<stop offset="0.345098" stop-color="#d1d91b"/>
				<stop offset="0.349019" stop-color="#d0d81b"/>
				<stop offset="0.352941" stop-color="#d0d81b"/>
				<stop offset="0.356862" stop-color="#cfd71b"/>
				<stop offset="0.360784" stop-color="#ced61b"/>
				<stop offset="0.364705" stop-color="#ced51a"/>
				<stop offset="0.368627" stop-color="#cdd51a"/>
				<stop offset="0.372548" stop-color="#ccd41a"/>
				<stop offset="0.37647" stop-color="#cbd31a"/>
				<stop offset="0.380392" stop-color="#cbd21a"/>
				<stop offset="0.384313" stop-color="#cad21a"/>
				<stop offset="0.388235" stop-color="#c9d11a"/>
				<stop offset="0.392156" stop-color="#c8d019"/>
				<stop offset="0.396078" stop-color="#c7cf19"/>
				<stop offset="0.399999" stop-color="#c7ce19"/>
				<stop offset="0.403921" stop-color="#c6cd19"/>
				<stop offset="0.407843" stop-color="#c5cd19"/>
				<stop offset="0.411764" stop-color="#c4cc19"/>
				<stop offset="0.415686" stop-color="#c3cb18"/>
				<stop offset="0.419607" stop-color="#c2ca18"/>
				<stop offset="0.423529" stop-color="#c2c918"/>
				<stop offset="0.42745" stop-color="#c1c818"/>
				<stop offset="0.431372" stop-color="#c0c718"/>
				<stop offset="0.435294" stop-color="#bfc618"/>
				<stop offset="0.439215" stop-color="#bec518"/>
				<stop offset="0.443137" stop-color="#bdc417"/>
				<stop offset="0.447058" stop-color="#bcc317"/>
				<stop offset="0.45098" stop-color="#bbc317"/>
				<stop offset="0.454901" stop-color="#bac217"/>
				<stop offset="0.458823" stop-color="#b9c117"/>
				<stop offset="0.462745" stop-color="#b8c016"/>
				<stop offset="0.466666" stop-color="#b8bf16"/>
				<stop offset="0.470588" stop-color="#b7be16"/>
				<stop offset="0.474509" stop-color="#b6bd16"/>
				<stop offset="0.478431" stop-color="#b5bc16"/>
				<stop offset="0.482352" stop-color="#b4bb16"/>
				<stop offset="0.486274" stop-color="#b3b915"/>
				<stop offset="0.490196" stop-color="#b2b815"/>
				<stop offset="0.494117" stop-color="#b1b715"/>
				<stop offset="0.498039" stop-color="#b0b615"/>
				<stop offset="0.50196" stop-color="#afb515"/>
				<stop offset="0.505882" stop-color="#adb414"/>
				<stop offset="0.509803" stop-color="#acb314"/>
				<stop offset="0.513725" stop-color="#abb214"/>
				<stop offset="0.517647" stop-color="#aab114"/>
				<stop offset="0.521568" stop-color="#a9b014"/>
				<stop offset="0.52549" stop-color="#a8af13"/>
				<stop offset="0.529411" stop-color="#a7ae13"/>
				<stop offset="0.533333" stop-color="#a6ac13"/>
				<stop offset="0.537254" stop-color="#a5ab13"/>
				<stop offset="0.541176" stop-color="#a4aa13"/>
				<stop offset="0.545098" stop-color="#a3a912"/>
				<stop offset="0.549019" stop-color="#a1a812"/>
				<stop offset="0.552941" stop-color="#a0a712"/>
				<stop offset="0.556862" stop-color="#9fa512"/>
				<stop offset="0.560784" stop-color="#9ea412"/>
				<stop offset="0.564705" stop-color="#9da311"/>
				<stop offset="0.568627" stop-color="#9ca211"/>
				<stop offset="0.572548" stop-color="#9ba111"/>
				<stop offset="0.57647" stop-color="#999f11"/>
				<stop offset="0.580392" stop-color="#989e10"/>
				<stop offset="0.584313" stop-color="#979d10"/>
				<stop offset="0.588235" stop-color="#969c10"/>
				<stop offset="0.592156" stop-color="#959b10"/>
				<stop offset="0.596078" stop-color="#949910"/>
				<stop offset="0.599999" stop-color="#92980f"/>
				<stop offset="0.603921" stop-color="#91970f"/>
				<stop offset="0.607843" stop-color="#90960f"/>
				<stop offset="0.611764" stop-color="#8f940f"/>
				<stop offset="0.615686" stop-color="#8d930e"/>
				<stop offset="0.619607" stop-color="#8c920e"/>
				<stop offset="0.623529" stop-color="#8b900e"/>
				<stop offset="0.62745" stop-color="#8a8f0e"/>
				<stop offset="0.631372" stop-color="#898e0e"/>
				<stop offset="0.635294" stop-color="#878d0d"/>
				<stop offset="0.639215" stop-color="#868b0d"/>
				<stop offset="0.643137" stop-color="#858a0d"/>
				<stop offset="0.647058" stop-color="#84890d"/>
				<stop offset="0.65098" stop-color="#82870c"/>
				<stop offset="0.654901" stop-color="#81860c"/>
				<stop offset="0.658823" stop-color="#80850c"/>
				<stop offset="0.662745" stop-color="#7f840c"/>
				<stop offset="0.666666" stop-color="#7d820b"/>
				<stop offset="0.670588" stop-color="#7c810b"/>
				<stop offset="0.674509" stop-color="#7b800b"/>
				<stop offset="0.678431" stop-color="#797e0b"/>
				<stop offset="0.682352" stop-color="#787d0b"/>
				<stop offset="0.686274" stop-color="#777c0a"/>
				<stop offset="0.690196" stop-color="#767a0a"/>
				<stop offset="0.694117" stop-color="#74790a"/>
				<stop offset="0.698039" stop-color="#73780a"/>
				<stop offset="0.70196" stop-color="#727609"/>
				<stop offset="0.705882" stop-color="#707509"/>
				<stop offset="0.709803" stop-color="#6f7409"/>
				<stop offset="0.713725" stop-color="#6e7209"/>
				<stop offset="0.717647" stop-color="#6d7108"/>
				<stop offset="0.721568" stop-color="#6b7008"/>
				<stop offset="0.72549" stop-color="#6a6e08"/>
				<stop offset="0.729411" stop-color="#696d08"/>
				<stop offset="0.733333" stop-color="#676c08"/>
				<stop offset="0.737254" stop-color="#666a07"/>
				<stop offset="0.741176" stop-color="#656907"/>
				<stop offset="0.745097" stop-color="#636707"/>
				<stop offset="0.749019" stop-color="#626607"/>
				<stop offset="0.752941" stop-color="#616506"/>
				<stop offset="0.756862" stop-color="#5f6306"/>
				<stop offset="0.760784" stop-color="#5e6206"/>
				<stop offset="0.764705" stop-color="#5d6106"/>
				<stop offset="0.768627" stop-color="#5c5f06"/>
				<stop offset="0.772548" stop-color="#5a5e06"/>
				<stop offset="0.77647" stop-color="#595d05"/>
				<stop offset="0.780392" stop-color="#585b05"/>
				<stop offset="0.784313" stop-color="#565a05"/>
				<stop offset="0.788235" stop-color="#555905"/>
				<stop offset="0.792156" stop-color="#545705"/>
				<stop offset="0.796078" stop-color="#525605"/>
				<stop offset="0.799999" stop-color="#515404"/>
				<stop offset="0.803921" stop-color="#505304"/>
				<stop offset="0.807843" stop-color="#4e5204"/>
				<stop offset="0.811764" stop-color="#4d5004"/>
				<stop offset="0.815686" stop-color="#4c4f04"/>
				<stop offset="0.819607" stop-color="#4a4e04"/>
				<stop offset="0.823529" stop-color="#494c03"/>
				<stop offset="0.82745" stop-color="#484b03"/>
				<stop offset="0.831372" stop-color="#474a03"/>
				<stop offset="0.835294" stop-color="#454803"/>
				<stop offset="0.839215" stop-color="#444703"/>
				<stop offset="0.843137" stop-color="#434503"/>
				<stop offset="0.847058" stop-color="#414403"/>
				<stop offset="0.85098" stop-color="#404303"/>
				<stop offset="0.854901" stop-color="#3f4102"/>
				<stop offset="0.858823" stop-color="#3d4002"/>
				<stop offset="0.862745" stop-color="#3c3f02"/>
				<stop offset="0.866666" stop-color="#3b3d02"/>
				<stop offset="0.870588" stop-color="#393c02"/>
				<stop offset="0.874509" stop-color="#383a02"/>
				<stop offset="0.878431" stop-color="#373902"/>
				<stop offset="0.882352" stop-color="#353802"/>
				<stop offset="0.886274" stop-color="#343602"/>
				<stop offset="0.890196" stop-color="#323501"/>
				<stop offset="0.894117" stop-color="#313301"/>
				<stop offset="0.898039" stop-color="#303201"/>
				<stop offset="0.90196" stop-color="#2e3001"/>
				<stop offset="0.905882" stop-color="#2d2f01"/>
				<stop offset="0.909803" stop-color="#2b2e01"/>
				<stop offset="0.913725" stop-color="#2a2c01"/>
				<stop offset="0.917647" stop-color="#292b01"/>
				<stop offset="0.921568" stop-color="#272901"/>
				<stop offset="0.92549" stop-color="#262801"/>
				<stop offset="0.929411" stop-color="#242601"/>
				<stop offset="0.933333" stop-color="#232400"/>
				<stop offset="0.937254" stop-color="#212300"/>
				<stop offset="0.941176" stop-color="#202100"/>
				<stop offset="0.945097" stop-color="#1e2000"/>
				<stop offset="0.949019" stop-color="#1c1e00"/>
				<stop offset="0.952941" stop-color="#1b1c00"/>
				<stop offset="0.956862" stop-color="#191a00"/>
				<stop offset="0.960784" stop-color="#171900"/>
				<stop offset="0.964705" stop-color="#151700"/>
				<stop offset="0.968627" stop-color="#131500"/>
				<stop offset="0.972548" stop-color="#111200"/>
				<stop offset="0.97647" stop-color="#0f1000"/>
				<stop offset="0.980392" stop-color="#0d0e00"/>
				<stop offset="0.984313" stop-color="#0a0b00"/>
				<stop offset="0.988235" stop-color="#070800"/>
				<stop offset="0.992156" stop-color="#050500"/>
				<stop offset="0.996078" stop-color="#020200"/>
				<stop offset="1" stop-color="#000000"/>
			</linearGradient>
		</defs>
		<defs>
			<mask id="Cp_1">
				<path d="M 1139,569 L 5478,569 5478,4089 1139,4089Z" fill="white"/>
			</mask>
		</defs>
		<g mask="url(#Cp_1)">
			<rect x="0" y="0" width="6361" height="4901" visibility="hidden" fill="none" opacity="0"/>
			<polygon points="1139,4088 1139,889 1143,889 1145,889 1147,889 1149,889 1152,889 1154,889 1156,889 1158,889 1160,889 1162,889 1164,889 1166,889 1168,889 1170,889 1173,889 1175,889 1177,889 1179,889 1183,889 1185,889 1187,889 1189,889 1191,889 1193,889 1195,889 1197,889 1200,889 1202,889 1204,889 1206,889 1208,889 1210,889 1213,889 1215,889 1218,889 1220,889 1223,889 1227,889 1231,889 1233,889 1235,889 1237,889 1239,889 1240,889 1242,889 1244,889 1246,889 1248,889 1250,889 1252,889 1254,889 1256,889 1258,889 1260,889 1262,889 1264,889 1266,889 1267,889 1269,889 1271,889 1273,889 1275,889 1277,889 1279,889 1281,889 1284,889 1285,889 1287,889 1289,889 1291,889 1293,889 1295,889 1297,889 1299,889 1300,889 1302,889 1304,889 1306,889 1308,889 1310,889 1312,889 1314,889 1315,889 1317,889 1319,889 1321,889 1323,889 1325,889 1327,889 1329,889 1331,889 1332,889 1334,889 1336,889 1338,889 1340,889 1342,889 1344,889 1346,889 1348,889 1349,889 1351,889 1353,889 1355,889 1357,889 1359,889 1361,889 1363,889 1364,889 1367,889 1369,889 1371,889 1372,889 1374,889 1376,889 1378,889 1380,889 1382,889 1384,889 1386,889 1387,889 1389,889 1391,889 1393,889 1395,889 1397,889 1399,889 1401,889 1403,889 1404,889 1406,889 1408,889 1410,889 1412,889 1414,889 1416,889 1418,889 1420,889 1421,889 1423,889 1425,889 1427,889 1429,889 1431,889 1433,889 1435,889 1437,889 1439,889 1440,889 1442,889 1444,889 1446,889 1448,889 1450,889 1452,889 1454,889 1455,889 1457,889 1459,889 1461,889 1463,889 1465,889 1467,889 1468,889 1470,889 1472,889 1474,889 1476,889 1478,889 1480,889 1482,889 1484,889 1485,889 1487,889 1489,889 1491,889 1493,889 1495,889 1497,889 1499,889 1501,889 1503,889 1505,889 1507,889 1508,889 1510,889 1512,889 1514,889 1516,889 1518,889 1520,889 1522,889 1524,889 1526,889 1528,889 1530,889 1532,889 1533,889 1535,889 1537,889 1539,889 1541,889 1543,889 1545,889 1548,889 1549,889 1551,889 1553,889 1555,889 1557,889 1559,889 1561,889 1564,889 1566,889 1570,889 1572,889 1575,889 1577,889 1579,889 1581,889 1583,889 1585,889 1587,889 1589,889 1591,889 1594,889 1596,889 1598,889 1601,889 1604,889 1606,889 1609,889 1611,889 1613,889 1614,889 1617,889 1618,889 1620,889 1623,889 1625,889 1627,889 1629,889 1631,889 1633,889 1636,889 1638,889 1640,889 1642,889 1644,889 1646,889 1648,889 1649,889 1651,889 1653,889 1655,889 1657,889 1660,889 1662,889 1665,889 1667,889 1670,889 1672,889 1673,889 1675,889 1677,889 1679,889 1681,889 1683,889 1685,889 1687,889 1689,889 1691,889 1693,889 1695,889 1696,889 1698,889 1700,889 1702,889 1704,889 1706,889 1708,889 1710,889 1711,889 1713,889 1715,889 1717,889 1719,889 1721,889 1723,889 1725,889 1726,889 1728,889 1730,889 1732,889 1734,889 1736,889 1738,889 1740,889 1742,889 1744,889 1745,889 1747,889 1749,889 1751,889 1753,889 1755,889 1757,889 1759,889 1760,889 1762,889 1764,889 1766,889 1768,889 1770,889 1772,889 1774,889 1775,889 1777,889 1779,889 1781,889 1783,889 1785,889 1787,889 1789,889 1790,889 1792,889 1794,889 1796,889 1798,889 1800,889 1802,889 1804,889 1805,889 1807,889 1809,889 1811,889 1813,889 1815,889 1817,889 1819,889 1820,889 1822,889 1824,889 1826,889 1828,889 1830,889 1832,889 1834,889 1836,889 1837,889 1839,889 1841,889 1844,889 1846,889 1848,889 1850,889 1852,889 1854,889 1856,889 1858,889 1859,889 1861,889 1863,889 1865,889 1867,889 1869,889 1871,889 1873,889 1875,889 1877,889 1878,889 1880,889 1882,889 1884,889 1886,889 1888,889 1890,889 1892,889 1894,889 1895,889 1897,889 1899,889 1901,889 1903,889 1905,889 1907,889 1910,889 1912,889 1914,889 1916,889 1918,889 1920,889 1922,889 1923,889 1925,889 1927,889 1929,889 1931,889 1933,889 1935,889 1937,889 1938,889 1940,889 1942,889 1944,889 1946,889 1948,889 1950,889 1952,889 1953,889 1955,889 1957,889 1959,889 1961,889 1963,889 1965,889 1967,889 1968,889 1970,889 1972,889 1974,889 1976,889 1979,889 1981,889 1983,889 1984,889 1986,889 1988,889 1990,889 1992,889 1994,889 1996,889 1998,889 2000,889 2002,889 2003,889 2005,889 2007,921 2009,921 2011,921 2013,921 2015,921 2017,921 2018,921 2020,921 2022,921 2024,921 2026,921 2028,921 2030,921 2032,921 2033,921 2035,921 2037,921 2039,921 2041,921 2043,921 2045,921 2047,921 2049,921 2051,921 2053,921 2055,921 2057,921 2058,921 2060,921 2062,921 2064,921 2066,921 2068,921 2070,921 2072,921 2073,921 2075,921 2077,921 2079,921 2081,921 2083,921 2085,921 2087,921 2088,921 2090,921 2092,921 2094,921 2096,921 2098,921 2100,921 2102,921 2104,921 2105,921 2107,921 2109,921 2111,921 2113,921 2115,921 2117,921 2119,921 2120,921 2122,921 2124,921 2126,921 2128,921 2130,921 2132,921 2134,921 2136,921 2137,921 2139,921 2141,921 2143,921 2145,921 2147,921 2149,921 2151,921 2152,921 2154,921 2156,921 2158,921 2160,921 2162,921 2164,921 2166,921 2167,921 2169,921 2171,921 2173,921 2175,921 2177,921 2179,921 2181,921 2183,921 2184,921 2186,921 2188,921 2190,921 2192,921 2194,921 2196,921 2198,921 2199,921 2201,921 2203,921 2205,921 2207,921 2209,921 2211,921 2213,921 2214,921 2216,921 2218,921 2220,921 2222,921 2224,921 2226,921 2228,921 2230,921 2231,921 2233,921 2235,921 2237,921 2239,921 2241,921 2243,921 2245,921 2247,921 2248,921 2251,921 2252,921 2254,921 2257,921 2259,921 2261,921 2263,921 2265,921 2267,921 2268,921 2270,921 2272,921 2274,921 2276,921 2278,921 2280,921 2282,921 2283,921 2286,921 2287,921 2289,921 2291,921 2293,921 2295,921 2297,921 2298,921 2300,921 2302,921 2304,921 2306,921 2308,921 2311,921 2313,921 2315,921 2317,921 2319,953 2321,953 2322,953 2324,953 2326,953 2328,953 2330,953 2332,953 2334,953 2336,953 2338,953 2340,953 2342,953 2344,953 2346,953 2347,953 2349,953 2351,953 2353,953 2355,953 2357,953 2359,953 2361,953 2363,953 2365,953 2367,953 2368,953 2371,953 2372,953 2374,953 2376,953 2378,953 2380,953 2382,953 2384,953 2385,953 2387,953 2389,953 2391,953 2393,953 2395,953 2397,953 2399,953 2400,953 2402,953 2404,953 2406,953 2408,953 2410,953 2412,953 2414,953 2415,953 2417,953 2419,953 2421,953 2423,953 2425,953 2427,953 2429,953 2431,953 2433,953 2434,953 2436,953 2438,953 2440,953 2442,953 2444,953 2446,953 2447,953 2449,953 2451,953 2453,953 2455,953 2457,953 2459,953 2460,953 2462,953 2464,953 2466,953 2468,953 2470,953 2472,953 2474,953 2476,953 2478,953 2480,953 2482,953 2484,953 2486,953 2487,953 2489,953 2491,953 2493,953 2495,953 2497,953 2499,953 2501,953 2503,953 2505,953 2506,953 2508,953 2510,953 2512,953 2514,953 2516,953 2518,953 2520,953 2522,953 2524,953 2526,953 2528,953 2529,953 2531,953 2533,953 2535,953 2537,953 2539,953 2541,953 2543,953 2544,953 2546,953 2548,953 2550,953 2552,953 2554,953 2556,953 2558,953 2559,953 2561,953 2563,953 2565,953 2567,953 2569,953 2571,953 2573,953 2575,953 2576,953 2578,953 2580,953 2582,953 2584,953 2586,953 2588,953 2590,953 2592,953 2594,953 2596,953 2598,953 2600,953 2602,953 2606,953 2614,953 2626,953 2630,953 2639,953 2644,953 2650,953 2660,953 2662,953 2669,953 2671,953 2675,953 2678,953 2684,953 2698,953 2708,953 2712,953 2722,953 2730,953 2732,953 2738,953 2740,953 2756,953 2772,985 2775,985 2781,985 2783,985 2785,985 2786,985 2788,985 2790,985 2792,985 2794,985 2796,985 2798,985 2800,985 2801,985 2803,985 2805,985 2807,985 2809,985 2811,985 2813,985 2815,985 2816,985 2818,985 2820,985 2822,985 2824,985 2826,985 2828,985 2830,985 2832,985 2833,985 2835,985 2837,985 2839,985 2841,985 2843,985 2845,985 2847,985 2849,985 2854,985 2855,985 2865,985 2873,985 2878,985 2880,985 2885,985 2888,985 2890,985 2899,985 2903,985 2915,985 2926,985 2929,985 2935,985 2938,985 2945,985 2949,985 2952,985 2956,985 2960,985 2961,985 2966,985 2970,985 2976,985 2980,985 2985,985 2988,985 3003,985 3010,985 3014,985 3020,985 3024,985 3037,985 3042,985 3046,985 3050,985 3054,985 3064,985 3069,985 3078,985 3080,985 3083,985 3093,985 3097,985 3101,985 3103,985 3106,985 3110,985 3113,985 3116,985 3124,985 3132,985 3135,985 3140,985 3143,985 3148,985 3155,985 3165,985 3170,985 3174,985 3176,985 3178,985 3182,985 3187,985 3189,985 3198,985 3201,985 3206,985 3213,985 3220,985 3232,985 3236,985 3240,985 3243,985 3247,985 3256,985 3261,985 3273,985 3275,985 3278,985 3282,985 3285,985 3289,985 3296,985 3305,985 3315,985 3317,985 3321,985 3330,985 3338,985 3345,985 3355,985 3362,985 3370,985 3378,985 3386,985 3394,985 3397,985 3405,985 3409,985 3417,985 3425,985 3434,985 3439,985 3443,985 3452,985 3459,985 3462,985 3466,985 3470,985 3473,985 3477,985 3484,985 3491,985 3500,985 3510,1049 3517,1049 3520,1049 3523,1049 3526,1049 3533,1049 3537,1049 3540,1049 3543,1049 3551,1049 3554,1049 3556,1049 3560,1049 3563,1049 3567,1049 3570,1049 3577,1049 3581,1049 3588,1049 3591,1049 3595,1049 3598,1049 3600,1049 3603,1049 3605,1049 3608,1049 3611,1049 3614,1049 3616,1049 3618,1049 3621,1049 3623,1049 3626,1049 3628,1049 3631,1049 3634,1049 3637,1049 3639,1049 3642,1049 3648,1049 3650,1049 3653,1049 3657,1049 3660,1049 3663,1049 3668,1049 3670,1049 3673,1049 3678,1049 3680,1049 3683,1049 3685,1049 3688,1049 3690,1049 3692,1049 3695,1049 3699,1049 3702,1049 3705,1049 3708,1049 3710,1049 3712,1049 3714,1049 3716,1049 3718,1049 3720,1049 3722,1049 3723,1049 3726,1049 3729,1049 3731,1049 3733,1049 3735,1049 3737,1049 3741,1049 3743,1049 3745,1049 3747,1049 3749,1049 3751,1049 3753,1049 3755,1049 3757,1049 3758,1049 3760,1049 3762,1049 3764,1049 3766,1049 3768,1049 3770,1049 3772,1049 3773,1049 3775,1049 3777,1049 3779,1049 3781,1049 3783,1049 3785,1049 3786,1049 3788,1049 3790,1049 3792,1049 3794,1049 3796,1049 3798,1049 3800,1049 3801,1049 3803,1049 3805,1049 3807,1049 3809,1049 3811,1049 3813,1049 3814,1049 3816,1049 3818,1049 3820,1049 3822,1049 3824,1049 3826,1049 3828,1049 3830,1049 3831,1049 3833,1049 3835,1049 3837,1049 3839,1049 3841,1049 3843,1049 3845,1049 3846,1049 3848,1049 3850,1049 3852,1049 3854,1049 3856,1049 3858,1049 3860,1049 3862,1049 3863,1049 3865,1049 3867,1049 3869,1049 3872,1049 3873,1049 3875,1049 3877,1049 3879,1049 3881,1049 3883,1049 3885,1049 3887,1049 3889,1049 3891,1049 3893,1049 3895,1049 3897,1049 3899,1049 3900,1049 3902,1049 3904,1049 3906,1049 3908,1049 3910,1049 3912,1049 3914,1049 3916,1049 3917,1049 3919,1049 3921,1049 3923,1049 3925,1049 3927,1049 3929,1049 3931,1049 3932,1049 3934,1049 3936,1049 3938,1049 3940,1049 3942,1049 3944,1049 3946,1049 3947,1049 3949,1049 3951,1049 3953,1049 3955,1049 3957,1049 3959,1049 3961,1049 3963,1049 3964,1049 3966,1049 3968,1049 3970,1049 3972,1049 3974,1049 3976,1049 3978,1049 3980,1049 3982,1049 3983,1049 3985,1049 3987,1049 3989,1049 3991,1049 3993,1049 3994,1049 3996,1049 3998,1049 4000,1081 4002,1081 4004,1081 4006,1081 4008,1081 4011,1081 4013,1081 4016,1081 4017,1081 4019,1081 4021,1081 4023,1081 4025,1081 4027,1081 4029,1081 4031,1081 4032,1081 4034,1081 4036,1081 4038,1081 4040,1081 4042,1081 4044,1081 4046,1081 4047,1081 4049,1081 4051,1081 4053,1081 4055,1081 4057,1081 4059,1081 4061,1081 4063,1081 4064,1081 4067,1081 4069,1081 4072,1081 4073,1081 4075,1081 4077,1081 4079,1081 4081,1081 4083,1081 4084,1081 4086,1081 4088,1081 4090,1081 4092,1081 4094,1081 4096,1081 4098,1081 4099,1081 4101,1081 4104,1081 4106,1081 4108,1081 4110,1081 4112,1081 4113,1081 4115,1081 4117,1081 4119,1081 4121,1081 4123,1081 4125,1081 4127,1081 4129,1081 4131,1081 4132,1081 4134,1081 4136,1081 4138,1081 4140,1081 4142,1081 4144,1081 4146,1081 4148,1081 4150,1081 4151,1081 4153,1081 4155,1081 4157,1081 4159,1081 4161,1081 4162,1081 4164,1081 4166,1081 4168,1081 4170,1081 4172,1081 4174,1081 4176,1081 4177,1081 4179,1081 4181,1081 4183,1081 4185,1081 4187,1081 4189,1081 4191,1081 4192,1081 4195,1081 4196,1081 4198,1081 4200,1081 4202,1081 4204,1081 4206,1081 4207,1081 4209,1113 4211,1113 4213,1113 4215,1113 4218,1113 4220,1113 4222,1113 4225,1113 4227,1113 4230,1113 4232,1113 4234,1113 4236,1113 4238,1113 4239,1113 4241,1113 4243,1113 4245,1113 4247,1113 4249,1113 4251,1113 4252,1113 4254,1113 4256,1113 4258,1113 4260,1113 4262,1113 4264,1113 4266,1113 4268,1113 4270,1113 4272,1113 4273,1113 4276,1113 4277,1113 4279,1113 4281,1113 4283,1113 4285,1113 4287,1113 4289,1113 4291,1113 4293,1113 4295,1113 4297,1113 4298,1113 4300,1113 4302,1113 4304,1113 4306,1113 4308,1113 4310,1113 4312,1113 4313,1113 4315,1113 4317,1113 4319,1113 4321,1113 4323,1113 4325,1113 4326,1113 4328,1113 4330,1113 4332,1113 4334,1113 4336,1113 4338,1113 4340,1113 4342,1113 4343,1113 4345,1113 4347,1113 4349,1113 4351,1113 4353,1113 4354,1113 4356,1113 4358,1113 4360,1113 4362,1113 4364,1113 4366,1113 4368,1113 4370,1113 4372,1113 4374,1113 4375,1113 4377,1113 4379,1113 4381,1113 4383,1113 4385,1145 4387,1145 4389,1145 4391,1145 4392,1145 4394,1145 4396,1145 4398,1145 4400,1145 4402,1145 4404,1145 4405,1145 4407,1145 4409,1145 4411,1145 4413,1145 4415,1145 4417,1145 4419,1145 4420,1145 4422,1145 4424,1145 4426,1145 4428,1145 4430,1145 4432,1145 4434,1145 4436,1145 4437,1145 4439,1145 4441,1145 4443,1145 4445,1145 4447,1145 4449,1145 4451,1145 4452,1145 4454,1145 4456,1145 4458,1145 4460,1145 4462,1145 4464,1145 4466,1145 4467,1145 4469,1145 4471,1145 4473,1145 4475,1145 4477,1145 4479,1145 4481,1145 4483,1145 4484,1145 4486,1145 4488,1145 4490,1145 4492,1145 4494,1145 4496,1145 4498,1145 4499,1145 4501,1145 4503,1145 4505,1145 4507,1145 4509,1145 4511,1145 4512,1145 4514,1145 4516,1145 4518,1145 4520,1145 4522,1145 4524,1145 4526,1145 4528,1145 4529,1145 4531,1145 4533,1145 4535,1145 4537,1145 4539,1145 4541,1145 4543,1145 4545,1145 4546,1145 4548,1145 4550,1145 4552,1145 4554,1145 4556,1145 4557,1145 4559,1145 4561,1145 4563,1145 4565,1145 4567,1145 4569,1145 4571,1145 4573,1145 4575,1145 4576,1145 4578,1145 4580,1145 4582,1145 4584,1145 4586,1145 4588,1145 4590,1145 4591,1145 4594,1145 4595,1145 4597,1145 4599,1145 4601,1145 4603,1145 4604,1145 4606,1145 4608,1145 4610,1145 4612,1145 4614,1145 4616,1145 4618,1145 4619,1145 4621,1145 4623,1145 4625,1145 4627,1145 4629,1145 4631,1145 4633,1145 4635,1145 4636,1145 4638,1145 4640,1145 4642,1145 4644,1145 4646,1145 4648,1145 4650,1145 4651,1145 4653,1145 4655,1145 4657,1145 4659,1145 4661,1145 4663,1145 4665,1145 4666,1145 4668,1145 4670,1145 4672,1145 4674,1145 4676,1145 4678,1145 4679,1145 4681,1145 4683,1145 4685,1145 4687,1145 4689,1145 4691,1145 4692,1145 4694,1145 4696,1145 4698,1145 4700,1145 4702,1145 4704,1145 4706,1145 4708,1145 4709,1145 4711,1145 4713,1177 4715,1177 4717,1177 4719,1177 4721,1177 4722,1177 4725,1177 4727,1177 4729,1177 4731,1177 4732,1177 4734,1177 4736,1177 4738,1177 4740,1177 4742,1177 4744,1177 4746,1177 4747,1177 4749,1177 4751,1177 4754,1177 4757,1177 4759,1177 4761,1177 4763,1177 4765,1177 4767,1177 4769,1177 4770,1177 4772,1177 4774,1177 4777,1177 4779,1177 4781,1177 4783,1177 4784,1177 4786,1177 4788,1177 4790,1177 4792,1177 4794,1177 4796,1177 4798,1177 4799,1177 4801,1177 4803,1177 4805,1177 4807,1177 4809,1177 4811,1177 4812,1177 4814,1177 4816,1177 4818,1177 4820,1177 4822,1177 4824,1177 4826,1177 4827,1177 4829,1177 4831,1177 4833,1177 4835,1177 4837,1177 4839,1177 4841,1177 4842,1177 4844,1177 4846,1177 4848,1177 4850,1177 4852,1177 4854,1177 4856,1177 4857,1177 4859,1177 4861,1177 4863,1177 4865,1177 4867,1177 4869,1177 4871,1177 4873,1177 4876,1209 4877,1209 4879,1209 4881,1209 4883,1209 4885,1209 4887,1209 4889,1209 4891,1209 4893,1209 4895,1209 4896,1209 4898,1209 4900,1209 4902,1209 4904,1209 4906,1209 4908,1209 4910,1209 4911,1209 4913,1209 4915,1209 4917,1209 4919,1209 4921,1209 4923,1209 4924,1209 4926,1209 4928,1209 4930,1209 4932,1209 4934,1209 4936,1209 4938,1209 4940,1209 4941,1209 4943,1209 4945,1209 4947,1209 4949,1209 4951,1209 4953,1209 4955,1209 4956,1209 4958,1209 4960,1209 4962,1209 4964,1209 4966,1209 4968,1209 4970,1209 4971,1209 4973,1209 4975,1209 4977,1209 4979,1209 4981,1209 4983,1209 4984,1209 4986,1209 4988,1209 4990,1209 4992,1209 4994,1209 4996,1209 4998,1209 4999,1209 5001,1209 5003,1209 5005,1209 5007,1209 5009,1209 5011,1209 5013,1209 5014,1209 5016,1209 5018,1209 5020,1241 5022,1241 5024,1241 5026,1241 5028,1241 5030,1241 5032,1241 5034,1241 5036,1241 5038,1241 5039,1241 5041,1241 5043,1241 5045,1241 5047,1241 5049,1241 5051,1241 5053,1241 5055,1241 5057,1241 5059,1241 5061,1241 5063,1241 5065,1241 5067,1241 5068,1241 5070,1241 5072,1241 5074,1241 5076,1241 5078,1241 5080,1241 5082,1241 5083,1241 5085,1241 5087,1241 5089,1241 5091,1241 5093,1241 5095,1241 5097,1241 5098,1241 5100,1241 5102,1241 5104,1241 5106,1241 5108,1241 5110,1241 5112,1241 5113,1241 5115,1241 5117,1241 5119,1241 5121,1241 5123,1241 5125,1241 5127,1241 5128,1241 5130,1241 5132,1241 5134,1241 5136,1241 5138,1241 5140,1241 5142,1241 5144,1241 5145,1241 5147,1241 5149,1241 5151,1241 5153,1241 5155,1241 5157,1241 5159,1241 5161,1241 5163,1241 5165,1241 5167,1241 5168,1241 5170,1241 5172,1241 5174,1241 5176,1241 5178,1241 5180,1241 5181,1241 5183,1241 5185,1241 5187,1241 5189,1273 5191,1305 5193,1305 5195,1305 5197,1305 5199,1305 5201,1305 5203,1305 5204,1305 5206,1305 5208,1305 5210,1305 5212,1305 5214,1305 5216,1305 5218,1305 5220,1305 5221,1305 5223,1305 5225,1305 5227,1305 5229,1305 5231,1305 5233,1305 5234,1305 5236,1305 5238,1305 5240,1305 5242,1305 5244,1305 5246,1305 5248,1305 5250,1305 5251,1305 5253,1305 5255,1305 5258,1305 5260,1305 5262,1305 5264,1305 5266,1305 5268,1305 5270,1305 5272,1305 5274,1305 5275,1305 5277,1305 5279,1305 5281,1305 5283,1305 5285,1305 5287,1305 5289,1305 5290,1305 5292,1305 5294,1305 5296,1305 5298,1305 5300,1305 5302,1305 5304,1305 5305,1305 5307,1305 5309,1305 5311,1305 5313,1305 5315,1305 5317,1305 5319,1305 5320,1305 5322,1305 5325,1305 5327,1305 5329,1305 5330,1305 5332,1337 5334,1337 5336,1337 5338,1337 5340,1337 5342,1337 5344,1337 5345,1337 5347,1337 5349,1337 5351,1337 5353,1337 5355,1337 5357,1337 5358,1337 5360,1337 5362,1337 5364,1337 5366,1337 5368,1369 5370,1369 5372,1369 5374,1369 5375,1369 5377,1369 5379,1369 5381,1369 5383,1369 5385,1369 5387,1369 5389,1369 5390,1369 5392,1369 5394,1369 5396,1369 5398,1369 5400,1369 5402,1369 5404,1369 5405,1369 5407,1369 5409,1369 5411,1369 5413,1369 5415,1369 5417,1369 5418,1369 5420,1369 5422,1369 5424,1369 5426,1369 5428,1369 5430,1369 5432,1369 5433,1369 5435,1369 5437,1369 5439,1369 5441,1369 5443,1369 5445,1369 5447,1369 5448,1369 5450,1369 5452,1369 5454,1369 5456,1369 5458,1369 5460,1369 5462,1369 5463,1369 5465,1369 5467,1369 5469,1369 5471,1369 5473,1369 5475,1401 5477,1433 5477,4088" fill-rule="evenodd" fill="url(#Grad_1)"/>
		</g>
		<defs>
			<mask id="Cp_2">
				<rect x="1139" y="569" width="4339" height="3520" fill="white"/>
			</mask>
		</defs>
		<g mask="url(#Cp_2)">
			<rect x="0" y="0" width="6361" height="4901" visibility="hidden" fill="none" opacity="0"/>
			<polyline points="1139,4088 1139,889 1143,889 1145,889 1147,889 1149,889 1152,889 1154,889 1156,889 1158,889 1160,889 1162,889 1164,889 1166,889 1168,889 1170,889 1173,889 1175,889 1177,889 1179,889 1183,889 1185,889 1187,889 1189,889 1191,889 1193,889 1195,889 1197,889 1200,889 1202,889 1204,889 1206,889 1208,889 1210,889 1213,889 1215,889 1218,889 1220,889 1223,889 1227,889 1231,889 1233,889 1235,889 1237,889 1239,889 1240,889 1242,889 1244,889 1246,889 1248,889 1250,889 1252,889 1254,889 1256,889 1258,889 1260,889 1262,889 1264,889 1266,889 1267,889 1269,889 1271,889 1273,889 1275,889 1277,889 1279,889 1281,889 1284,889 1285,889 1287,889 1289,889 1291,889 1293,889 1295,889 1297,889 1299,889 1300,889 1302,889 1304,889 1306,889 1308,889 1310,889 1312,889 1314,889 1315,889 1317,889 1319,889 1321,889 1323,889 1325,889 1327,889 1329,889 1331,889 1332,889 1334,889 1336,889 1338,889 1340,889 1342,889 1344,889 1346,889 1348,889 1349,889 1351,889 1353,889 1355,889 1357,889 1359,889 1361,889 1363,889 1364,889 1367,889 1369,889 1371,889 1372,889 1374,889 1376,889 1378,889 1380,889 1382,889 1384,889 1386,889 1387,889 1389,889 1391,889 1393,889 1395,889 1397,889 1399,889 1401,889 1403,889 1404,889 1406,889 1408,889 1410,889 1412,889 1414,889 1416,889 1418,889 1420,889 1421,889 1423,889 1425,889 1427,889 1429,889 1431,889 1433,889 1435,889 1437,889 1439,889 1440,889 1442,889 1444,889 1446,889 1448,889 1450,889 1452,889 1454,889 1455,889 1457,889 1459,889 1461,889 1463,889 1465,889 1467,889 1468,889 1470,889 1472,889 1474,889 1476,889 1478,889 1480,889 1482,889 1484,889 1485,889 1487,889 1489,889 1491,889 1493,889 1495,889 1497,889 1499,889 1501,889 1503,889 1505,889 1507,889 1508,889 1510,889 1512,889 1514,889 1516,889 1518,889 1520,889 1522,889 1524,889 1526,889 1528,889 1530,889 1532,889 1533,889 1535,889 1537,889 1539,889 1541,889 1543,889 1545,889 1548,889 1549,889 1551,889 1553,889 1555,889 1557,889 1559,889 1561,889 1564,889 1566,889 1570,889 1572,889 1575,889 1577,889 1579,889 1581,889 1583,889 1585,889 1587,889 1589,889 1591,889 1594,889 1596,889 1598,889 1601,889 1604,889 1606,889 1609,889 1611,889 1613,889 1614,889 1617,889 1618,889 1620,889 1623,889 1625,889 1627,889 1629,889 1631,889 1633,889 1636,889 1638,889 1640,889 1642,889 1644,889 1646,889 1648,889 1649,889 1651,889 1653,889 1655,889 1657,889 1660,889 1662,889 1665,889 1667,889 1670,889 1672,889 1673,889 1675,889 1677,889 1679,889 1681,889 1683,889 1685,889 1687,889 1689,889 1691,889 1693,889 1695,889 1696,889 1698,889 1700,889 1702,889 1704,889 1706,889 1708,889 1710,889 1711,889 1713,889 1715,889 1717,889 1719,889 1721,889 1723,889 1725,889 1726,889 1728,889 1730,889 1732,889 1734,889 1736,889 1738,889 1740,889 1742,889 1744,889 1745,889 1747,889 1749,889 1751,889 1753,889 1755,889 1757,889 1759,889 1760,889 1762,889 1764,889 1766,889 1768,889 1770,889 1772,889 1774,889 1775,889 1777,889 1779,889 1781,889 1783,889 1785,889 1787,889 1789,889 1790,889 1792,889 1794,889 1796,889 1798,889 1800,889 1802,889 1804,889 1805,889 1807,889 1809,889 1811,889 1813,889 1815,889 1817,889 1819,889 1820,889 1822,889 1824,889 1826,889 1828,889 1830,889 1832,889 1834,889 1836,889 1837,889 1839,889 1841,889 1844,889 1846,889 1848,889 1850,889 1852,889 1854,889 1856,889 1858,889 1859,889 1861,889 1863,889 1865,889 1867,889 1869,889 1871,889 1873,889 1875,889 1877,889 1878,889 1880,889 1882,889 1884,889 1886,889 1888,889 1890,889 1892,889 1894,889 1895,889 1897,889 1899,889 1901,889 1903,889 1905,889 1907,889 1910,889 1912,889 1914,889 1916,889 1918,889 1920,889 1922,889 1923,889 1925,889 1927,889 1929,889 1931,889 1933,889 1935,889 1937,889 1938,889 1940,889 1942,889 1944,889 1946,889 1948,889 1950,889 1952,889 1953,889 1955,889 1957,889 1959,889 1961,889 1963,889 1965,889 1967,889 1968,889 1970,889 1972,889 1974,889 1976,889 1979,889 1981,889 1983,889 1984,889 1986,889 1988,889 1990,889 1992,889 1994,889 1996,889 1998,889 2000,889 2002,889 2003,889 2005,889 2007,921 2009,921 2011,921 2013,921 2015,921 2017,921 2018,921 2020,921 2022,921 2024,921 2026,921 2028,921 2030,921 2032,921 2033,921 2035,921 2037,921 2039,921 2041,921 2043,921 2045,921 2047,921 2049,921 2051,921 2053,921 2055,921 2057,921 2058,921 2060,921 2062,921 2064,921 2066,921 2068,921 2070,921 2072,921 2073,921 2075,921 2077,921 2079,921 2081,921 2083,921 2085,921 2087,921 2088,921 2090,921 2092,921 2094,921 2096,921 2098,921 2100,921 2102,921 2104,921 2105,921 2107,921 2109,921 2111,921 2113,921 2115,921 2117,921 2119,921 2120,921 2122,921 2124,921 2126,921 2128,921 2130,921 2132,921 2134,921 2136,921 2137,921 2139,921 2141,921 2143,921 2145,921 2147,921 2149,921 2151,921 2152,921 2154,921 2156,921 2158,921 2160,921 2162,921 2164,921 2166,921 2167,921 2169,921 2171,921 2173,921 2175,921 2177,921 2179,921 2181,921 2183,921 2184,921 2186,921 2188,921 2190,921 2192,921 2194,921 2196,921 2198,921 2199,921 2201,921 2203,921 2205,921 2207,921 2209,921 2211,921 2213,921 2214,921 2216,921 2218,921 2220,921 2222,921 2224,921 2226,921 2228,921 2230,921 2231,921 2233,921 2235,921 2237,921 2239,921 2241,921 2243,921 2245,921 2247,921 2248,921 2251,921 2252,921 2254,921 2257,921 2259,921 2261,921 2263,921 2265,921 2267,921 2268,921 2270,921 2272,921 2274,921 2276,921 2278,921 2280,921 2282,921 2283,921 2286,921 2287,921 2289,921 2291,921 2293,921 2295,921 2297,921 2298,921 2300,921 2302,921 2304,921 2306,921 2308,921 2311,921 2313,921 2315,921 2317,921 2319,953 2321,953 2322,953 2324,953 2326,953 2328,953 2330,953 2332,953 2334,953 2336,953 2338,953 2340,953 2342,953 2344,953 2346,953 2347,953 2349,953 2351,953 2353,953 2355,953 2357,953 2359,953 2361,953 2363,953 2365,953 2367,953 2368,953 2371,953 2372,953 2374,953 2376,953 2378,953 2380,953 2382,953 2384,953 2385,953 2387,953 2389,953 2391,953 2393,953 2395,953 2397,953 2399,953 2400,953 2402,953 2404,953 2406,953 2408,953 2410,953 2412,953 2414,953 2415,953 2417,953 2419,953 2421,953 2423,953 2425,953 2427,953 2429,953 2431,953 2433,953 2434,953 2436,953 2438,953 2440,953 2442,953 2444,953 2446,953 2447,953 2449,953 2451,953 2453,953 2455,953 2457,953 2459,953 2460,953 2462,953 2464,953 2466,953 2468,953 2470,953 2472,953 2474,953 2476,953 2478,953 2480,953 2482,953 2484,953 2486,953 2487,953 2489,953 2491,953 2493,953 2495,953 2497,953 2499,953 2501,953 2503,953 2505,953 2506,953 2508,953 2510,953 2512,953 2514,953 2516,953 2518,953 2520,953 2522,953 2524,953 2526,953 2528,953 2529,953 2531,953 2533,953 2535,953 2537,953 2539,953 2541,953 2543,953 2544,953 2546,953 2548,953 2550,953 2552,953 2554,953 2556,953 2558,953 2559,953 2561,953 2563,953 2565,953 2567,953 2569,953 2571,953 2573,953 2575,953 2576,953 2578,953 2580,953 2582,953 2584,953 2586,953 2588,953 2590,953 2592,953 2594,953 2596,953 2598,953 2600,953 2602,953 2606,953 2614,953 2626,953 2630,953 2639,953 2644,953 2650,953 2660,953 2662,953 2669,953 2671,953 2675,953 2678,953 2684,953 2698,953 2708,953 2712,953 2722,953 2730,953 2732,953 2738,953 2740,953 2756,953 2772,985 2775,985 2781,985 2783,985 2785,985 2786,985 2788,985 2790,985 2792,985 2794,985 2796,985 2798,985 2800,985 2801,985 2803,985 2805,985 2807,985 2809,985 2811,985 2813,985 2815,985 2816,985 2818,985 2820,985 2822,985 2824,985 2826,985 2828,985 2830,985 2832,985 2833,985 2835,985 2837,985 2839,985 2841,985 2843,985 2845,985 2847,985 2849,985 2854,985 2855,985 2865,985 2873,985 2878,985 2880,985 2885,985 2888,985 2890,985 2899,985 2903,985 2915,985 2926,985 2929,985 2935,985 2938,985 2945,985 2949,985 2952,985 2956,985 2960,985 2961,985 2966,985 2970,985 2976,985 2980,985 2985,985 2988,985 3003,985 3010,985 3014,985 3020,985 3024,985 3037,985 3042,985 3046,985 3050,985 3054,985 3064,985 3069,985 3078,985 3080,985 3083,985 3093,985 3097,985 3101,985 3103,985 3106,985 3110,985 3113,985 3116,985 3124,985 3132,985 3135,985 3140,985 3143,985 3148,985 3155,985 3165,985 3170,985 3174,985 3176,985 3178,985 3182,985 3187,985 3189,985 3198,985 3201,985 3206,985 3213,985 3220,985 3232,985 3236,985 3240,985 3243,985 3247,985 3256,985 3261,985 3273,985 3275,985 3278,985 3282,985 3285,985 3289,985 3296,985 3305,985 3315,985 3317,985 3321,985 3330,985 3338,985 3345,985 3355,985 3362,985 3370,985 3378,985 3386,985 3394,985 3397,985 3405,985 3409,985 3417,985 3425,985 3434,985 3439,985 3443,985 3452,985 3459,985 3462,985 3466,985 3470,985 3473,985 3477,985 3484,985 3491,985 3500,985 3510,1049 3517,1049 3520,1049 3523,1049 3526,1049 3533,1049 3537,1049 3540,1049 3543,1049 3551,1049 3554,1049 3556,1049 3560,1049 3563,1049 3567,1049 3570,1049 3577,1049 3581,1049 3588,1049 3591,1049 3595,1049 3598,1049 3600,1049 3603,1049 3605,1049 3608,1049 3611,1049 3614,1049 3616,1049 3618,1049 3621,1049 3623,1049 3626,1049 3628,1049 3631,1049 3634,1049 3637,1049 3639,1049 3642,1049 3648,1049 3650,1049 3653,1049 3657,1049 3660,1049 3663,1049 3668,1049 3670,1049 3673,1049 3678,1049 3680,1049 3683,1049 3685,1049 3688,1049 3690,1049 3692,1049 3695,1049 3699,1049 3702,1049 3705,1049 3708,1049 3710,1049 3712,1049 3714,1049 3716,1049 3718,1049 3720,1049 3722,1049 3723,1049 3726,1049 3729,1049 3731,1049 3733,1049 3735,1049 3737,1049 3741,1049 3743,1049 3745,1049 3747,1049 3749,1049 3751,1049 3753,1049 3755,1049 3757,1049 3758,1049 3760,1049 3762,1049 3764,1049 3766,1049 3768,1049 3770,1049 3772,1049 3773,1049 3775,1049 3777,1049 3779,1049 3781,1049 3783,1049 3785,1049 3786,1049 3788,1049 3790,1049 3792,1049 3794,1049 3796,1049 3798,1049 3800,1049 3801,1049 3803,1049 3805,1049 3807,1049 3809,1049 3811,1049 3813,1049 3814,1049 3816,1049 3818,1049 3820,1049 3822,1049 3824,1049 3826,1049 3828,1049 3830,1049 3831,1049 3833,1049 3835,1049 3837,1049 3839,1049 3841,1049 3843,1049 3845,1049 3846,1049 3848,1049 3850,1049 3852,1049 3854,1049 3856,1049 3858,1049 3860,1049 3862,1049 3863,1049 3865,1049 3867,1049 3869,1049 3872,1049 3873,1049 3875,1049 3877,1049 3879,1049 3881,1049 3883,1049 3885,1049 3887,1049 3889,1049 3891,1049 3893,1049 3895,1049 3897,1049 3899,1049 3900,1049 3902,1049 3904,1049 3906,1049 3908,1049 3910,1049 3912,1049 3914,1049 3916,1049 3917,1049 3919,1049 3921,1049 3923,1049 3925,1049 3927,1049 3929,1049 3931,1049 3932,1049 3934,1049 3936,1049 3938,1049 3940,1049 3942,1049 3944,1049 3946,1049 3947,1049 3949,1049 3951,1049 3953,1049 3955,1049 3957,1049 3959,1049 3961,1049 3963,1049 3964,1049 3966,1049 3968,1049 3970,1049 3972,1049 3974,1049 3976,1049 3978,1049 3980,1049 3982,1049 3983,1049 3985,1049 3987,1049 3989,1049 3991,1049 3993,1049 3994,1049 3996,1049 3998,1049 4000,1081 4002,1081 4004,1081 4006,1081 4008,1081 4011,1081 4013,1081 4016,1081 4017,1081 4019,1081 4021,1081 4023,1081 4025,1081 4027,1081 4029,1081 4031,1081 4032,1081 4034,1081 4036,1081 4038,1081 4040,1081 4042,1081 4044,1081 4046,1081 4047,1081 4049,1081 4051,1081 4053,1081 4055,1081 4057,1081 4059,1081 4061,1081 4063,1081 4064,1081 4067,1081 4069,1081 4072,1081 4073,1081 4075,1081 4077,1081 4079,1081 4081,1081 4083,1081 4084,1081 4086,1081 4088,1081 4090,1081 4092,1081 4094,1081 4096,1081 4098,1081 4099,1081 4101,1081 4104,1081 4106,1081 4108,1081 4110,1081 4112,1081 4113,1081 4115,1081 4117,1081 4119,1081 4121,1081 4123,1081 4125,1081 4127,1081 4129,1081 4131,1081 4132,1081 4134,1081 4136,1081 4138,1081 4140,1081 4142,1081 4144,1081 4146,1081 4148,1081 4150,1081 4151,1081 4153,1081 4155,1081 4157,1081 4159,1081 4161,1081 4162,1081 4164,1081 4166,1081 4168,1081 4170,1081 4172,1081 4174,1081 4176,1081 4177,1081 4179,1081 4181,1081 4183,1081 4185,1081 4187,1081 4189,1081 4191,1081 4192,1081 4195,1081 4196,1081 4198,1081 4200,1081 4202,1081 4204,1081 4206,1081 4207,1081 4209,1113 4211,1113 4213,1113 4215,1113 4218,1113 4220,1113 4222,1113 4225,1113 4227,1113 4230,1113 4232,1113 4234,1113 4236,1113 4238,1113 4239,1113 4241,1113 4243,1113 4245,1113 4247,1113 4249,1113 4251,1113 4252,1113 4254,1113 4256,1113 4258,1113 4260,1113 4262,1113 4264,1113 4266,1113 4268,1113 4270,1113 4272,1113 4273,1113 4276,1113 4277,1113 4279,1113 4281,1113 4283,1113 4285,1113 4287,1113 4289,1113 4291,1113 4293,1113 4295,1113 4297,1113 4298,1113 4300,1113 4302,1113 4304,1113 4306,1113 4308,1113 4310,1113 4312,1113 4313,1113 4315,1113 4317,1113 4319,1113 4321,1113 4323,1113 4325,1113 4326,1113 4328,1113 4330,1113 4332,1113 4334,1113 4336,1113 4338,1113 4340,1113 4342,1113 4343,1113 4345,1113 4347,1113 4349,1113 4351,1113 4353,1113 4354,1113 4356,1113 4358,1113 4360,1113 4362,1113 4364,1113 4366,1113 4368,1113 4370,1113 4372,1113 4374,1113 4375,1113 4377,1113 4379,1113 4381,1113 4383,1113 4385,1145 4387,1145 4389,1145 4391,1145 4392,1145 4394,1145 4396,1145 4398,1145 4400,1145 4402,1145 4404,1145 4405,1145 4407,1145 4409,1145 4411,1145 4413,1145 4415,1145 4417,1145 4419,1145 4420,1145 4422,1145 4424,1145 4426,1145 4428,1145 4430,1145 4432,1145 4434,1145 4436,1145 4437,1145 4439,1145 4441,1145 4443,1145 4445,1145 4447,1145 4449,1145 4451,1145 4452,1145 4454,1145 4456,1145 4458,1145 4460,1145 4462,1145 4464,1145 4466,1145 4467,1145 4469,1145 4471,1145 4473,1145 4475,1145 4477,1145 4479,1145 4481,1145 4483,1145 4484,1145 4486,1145 4488,1145 4490,1145 4492,1145 4494,1145 4496,1145 4498,1145 4499,1145 4501,1145 4503,1145 4505,1145 4507,1145 4509,1145 4511,1145 4512,1145 4514,1145 4516,1145 4518,1145 4520,1145 4522,1145 4524,1145 4526,1145 4528,1145 4529,1145 4531,1145 4533,1145 4535,1145 4537,1145 4539,1145 4541,1145 4543,1145 4545,1145 4546,1145 4548,1145 4550,1145 4552,1145 4554,1145 4556,1145 4557,1145 4559,1145 4561,1145 4563,1145 4565,1145 4567,1145 4569,1145 4571,1145 4573,1145 4575,1145 4576,1145 4578,1145 4580,1145 4582,1145 4584,1145 4586,1145 4588,1145 4590,1145 4591,1145 4594,1145 4595,1145 4597,1145 4599,1145 4601,1145 4603,1145 4604,1145 4606,1145 4608,1145 4610,1145 4612,1145 4614,1145 4616,1145 4618,1145 4619,1145 4621,1145 4623,1145 4625,1145 4627,1145 4629,1145 4631,1145 4633,1145 4635,1145 4636,1145 4638,1145 4640,1145 4642,1145 4644,1145 4646,1145 4648,1145 4650,1145 4651,1145 4653,1145 4655,1145 4657,1145 4659,1145 4661,1145 4663,1145 4665,1145 4666,1145 4668,1145 4670,1145 4672,1145 4674,1145 4676,1145 4678,1145 4679,1145 4681,1145 4683,1145 4685,1145 4687,1145 4689,1145 4691,1145 4692,1145 4694,1145 4696,1145 4698,1145 4700,1145 4702,1145 4704,1145 4706,1145 4708,1145 4709,1145 4711,1145 4713,1177 4715,1177 4717,1177 4719,1177 4721,1177 4722,1177 4725,1177 4727,1177 4729,1177 4731,1177 4732,1177 4734,1177 4736,1177 4738,1177 4740,1177 4742,1177 4744,1177 4746,1177 4747,1177 4749,1177 4751,1177 4754,1177 4757,1177 4759,1177 4761,1177 4763,1177 4765,1177 4767,1177 4769,1177 4770,1177 4772,1177 4774,1177 4777,1177 4779,1177 4781,1177 4783,1177 4784,1177 4786,1177 4788,1177 4790,1177 4792,1177 4794,1177 4796,1177 4798,1177 4799,1177 4801,1177 4803,1177 4805,1177 4807,1177 4809,1177 4811,1177 4812,1177 4814,1177 4816,1177 4818,1177 4820,1177 4822,1177 4824,1177 4826,1177 4827,1177 4829,1177 4831,1177 4833,1177 4835,1177 4837,1177 4839,1177 4841,1177 4842,1177 4844,1177 4846,1177 4848,1177 4850,1177 4852,1177 4854,1177 4856,1177 4857,1177 4859,1177 4861,1177 4863,1177 4865,1177 4867,1177 4869,1177 4871,1177 4873,1177 4876,1209 4877,1209 4879,1209 4881,1209 4883,1209 4885,1209 4887,1209 4889,1209 4891,1209 4893,1209 4895,1209 4896,1209 4898,1209 4900,1209 4902,1209 4904,1209 4906,1209 4908,1209 4910,1209 4911,1209 4913,1209 4915,1209 4917,1209 4919,1209 4921,1209 4923,1209 4924,1209 4926,1209 4928,1209 4930,1209 4932,1209 4934,1209 4936,1209 4938,1209 4940,1209 4941,1209 4943,1209 4945,1209 4947,1209 4949,1209 4951,1209 4953,1209 4955,1209 4956,1209 4958,1209 4960,1209 4962,1209 4964,1209 4966,1209 4968,1209 4970,1209 4971,1209 4973,1209 4975,1209 4977,1209 4979,1209 4981,1209 4983,1209 4984,1209 4986,1209 4988,1209 4990,1209 4992,1209 4994,1209 4996,1209 4998,1209 4999,1209 5001,1209 5003,1209 5005,1209 5007,1209 5009,1209 5011,1209 5013,1209 5014,1209 5016,1209 5018,1209 5020,1241 5022,1241 5024,1241 5026,1241 5028,1241 5030,1241 5032,1241 5034,1241 5036,1241 5038,1241 5039,1241 5041,1241 5043,1241 5045,1241 5047,1241 5049,1241 5051,1241 5053,1241 5055,1241 5057,1241 5059,1241 5061,1241 5063,1241 5065,1241 5067,1241 5068,1241 5070,1241 5072,1241 5074,1241 5076,1241 5078,1241 5080,1241 5082,1241 5083,1241 5085,1241 5087,1241 5089,1241 5091,1241 5093,1241 5095,1241 5097,1241 5098,1241 5100,1241 5102,1241 5104,1241 5106,1241 5108,1241 5110,1241 5112,1241 5113,1241 5115,1241 5117,1241 5119,1241 5121,1241 5123,1241 5125,1241 5127,1241 5128,1241 5130,1241 5132,1241 5134,1241 5136,1241 5138,1241 5140,1241 5142,1241 5144,1241 5145,1241 5147,1241 5149,1241 5151,1241 5153,1241 5155,1241 5157,1241 5159,1241 5161,1241 5163,1241 5165,1241 5167,1241 5168,1241 5170,1241 5172,1241 5174,1241 5176,1241 5178,1241 5180,1241 5181,1241 5183,1241 5185,1241 5187,1241 5189,1273 5191,1305 5193,1305 5195,1305 5197,1305 5199,1305 5201,1305 5203,1305 5204,1305 5206,1305 5208,1305 5210,1305 5212,1305 5214,1305 5216,1305 5218,1305 5220,1305 5221,1305 5223,1305 5225,1305 5227,1305 5229,1305 5231,1305 5233,1305 5234,1305 5236,1305 5238,1305 5240,1305 5242,1305 5244,1305 5246,1305 5248,1305 5250,1305 5251,1305 5253,1305 5255,1305 5258,1305 5260,1305 5262,1305 5264,1305 5266,1305 5268,1305 5270,1305 5272,1305 5274,1305 5275,1305 5277,1305 5279,1305 5281,1305 5283,1305 5285,1305 5287,1305 5289,1305 5290,1305 5292,1305 5294,1305 5296,1305 5298,1305 5300,1305 5302,1305 5304,1305 5305,1305 5307,1305 5309,1305 5311,1305 5313,1305 5315,1305 5317,1305 5319,1305 5320,1305 5322,1305 5325,1305 5327,1305 5329,1305 5330,1305 5332,1337 5334,1337 5336,1337 5338,1337 5340,1337 5342,1337 5344,1337 5345,1337 5347,1337 5349,1337 5351,1337 5353,1337 5355,1337 5357,1337 5358,1337 5360,1337 5362,1337 5364,1337 5366,1337 5368,1369 5370,1369 5372,1369 5374,1369 5375,1369 5377,1369 5379,1369 5381,1369 5383,1369 5385,1369 5387,1369 5389,1369 5390,1369 5392,1369 5394,1369 5396,1369 5398,1369 5400,1369 5402,1369 5404,1369 5405,1369 5407,1369 5409,1369 5411,1369 5413,1369 5415,1369 5417,1369 5418,1369 5420,1369 5422,1369 5424,1369 5426,1369 5428,1369 5430,1369 5432,1369 5433,1369 5435,1369 5437,1369 5439,1369 5441,1369 5443,1369 5445,1369 5447,1369 5448,1369 5450,1369 5452,1369 5454,1369 5456,1369 5458,1369 5460,1369 5462,1369 5463,1369 5465,1369 5467,1369 5469,1369 5471,1369 5473,1369 5475,1401 5477,1433 5477,4088" style="stroke: #515151;stroke-width: 8;stroke-linecap:round;stroke-linejoin:round" fill="none"/>
		</g>
		<polyline points="1139,4088 5477,4088" style="stroke: black;stroke-width: 13;stroke-linecap:square;stroke-linejoin:round" fill="none"/>
		<polyline points="1433,4088 1433,4122" style="stroke: black;stroke-width: 13;stroke-linecap:butt;stroke-linejoin:round" fill="none"/>
		<polyline points="2026,4088 2026,4122" style="stroke: black;stroke-width: 13;stroke-linecap:butt;stroke-linejoin:round" fill="none"/>
		<polyline points="2619,4088 2619,4122" style="stroke: black;stroke-width: 13;stroke-linecap:butt;stroke-linejoin:round" fill="none"/>
		<polyline points="3211,4088 3211,4122" style="stroke: black;stroke-width: 13;stroke-linecap:butt;stroke-linejoin:round" fill="none"/>
		<polyline points="3804,4088 3804,4122" style="stroke: black;stroke-width: 13;stroke-linecap:butt;stroke-linejoin:round" fill="none"/>
		<polyline points="4396,4088 4396,4122" style="stroke: black;stroke-width: 13;stroke-linecap:butt;stroke-linejoin:round" fill="none"/>
		<polyline points="4989,4088 4989,4122" style="stroke: black;stroke-width: 13;stroke-linecap:butt;stroke-linejoin:round" fill="none"/>
		<polyline points="1730,4088 1730,4157" style="stroke: black;stroke-width: 13;stroke-linecap:butt;stroke-linejoin:round" fill="none"/>
		<polyline points="2322,4088 2322,4157" style="stroke: black;stroke-width: 13;stroke-linecap:butt;stroke-linejoin:round" fill="none"/>
		<polyline points="2915,4088 2915,4157" style="stroke: black;stroke-width: 13;stroke-linecap:butt;stroke-linejoin:round" fill="none"/>
		<polyline points="3507,4088 3507,4157" style="stroke: black;stroke-width: 13;stroke-linecap:butt;stroke-linejoin:round" fill="none"/>
		<polyline points="4100,4088 4100,4157" style="stroke: black;stroke-width: 13;stroke-linecap:butt;stroke-linejoin:round" fill="none"/>
		<polyline points="4692,4088 4692,4157" style="stroke: black;stroke-width: 13;stroke-linecap:butt;stroke-linejoin:round" fill="none"/>
		<polyline points="5285,4088 5285,4157" style="stroke: black;stroke-width: 13;stroke-linecap:butt;stroke-linejoin:round" fill="none"/>
		<polyline points="1139,4088 1139,569" style="stroke: black;stroke-width: 13;stroke-linecap:square;stroke-linejoin:round" fill="none"/>
		<polyline points="1139,3768 1105,3768" style="stroke: black;stroke-width: 13;stroke-linecap:butt;stroke-linejoin:round" fill="none"/>
		<polyline points="1139,3128 1105,3128" style="stroke: black;stroke-width: 13;stroke-linecap:butt;stroke-linejoin:round" fill="none"/>
		<polyline points="1139,2488 1105,2488" style="stroke: black;stroke-width: 13;stroke-linecap:butt;stroke-linejoin:round" fill="none"/>
		<polyline points="1139,1849 1105,1849" style="stroke: black;stroke-width: 13;stroke-linecap:butt;stroke-linejoin:round" fill="none"/>
		<polyline points="1139,1209 1105,1209" style="stroke: black;stroke-width: 13;stroke-linecap:butt;stroke-linejoin:round" fill="none"/>
		<polyline points="1139,569 1105,569" style="stroke: black;stroke-width: 13;stroke-linecap:butt;stroke-linejoin:round" fill="none"/>
		<polyline points="1139,4088 1070,4088" style="stroke: black;stroke-width: 13;stroke-linecap:butt;stroke-linejoin:round" fill="none"/>
		<polyline points="1139,3448 1070,3448" style="stroke: black;stroke-width: 13;stroke-linecap:butt;stroke-linejoin:round" fill="none"/>
		<polyline points="1139,2808 1070,2808" style="stroke: black;stroke-width: 13;stroke-linecap:butt;stroke-linejoin:round" fill="none"/>
		<polyline points="1139,2169 1070,2169" style="stroke: black;stroke-width: 13;stroke-linecap:butt;stroke-linejoin:round" fill="none"/>
		<polyline points="1139,1529 1070,1529" style="stroke: black;stroke-width: 13;stroke-linecap:butt;stroke-linejoin:round" fill="none"/>
		<polyline points="1139,889 1070,889" style="stroke: black;stroke-width: 13;stroke-linecap:butt;stroke-linejoin:round" fill="none"/>
		<text x="1523" dominant-baseline="auto" y="4322" fill="black" font-family="Arial,'MS PGothic',SimSun" font-size="150" font-weight="400">
			<tspan x="1523" style="font-kerning:none">20000</tspan>
		</text>
		<text x="2115" dominant-baseline="auto" y="4322" fill="black" font-family="Arial,'MS PGothic',SimSun" font-size="150" font-weight="400">
			<tspan x="2115" style="font-kerning:none">40000</tspan>
		</text>
		<text x="2708" dominant-baseline="auto" y="4322" fill="black" font-family="Arial,'MS PGothic',SimSun" font-size="150" font-weight="400">
			<tspan x="2708" style="font-kerning:none">60000</tspan>
		</text>
		<text x="3300" dominant-baseline="auto" y="4322" fill="black" font-family="Arial,'MS PGothic',SimSun" font-size="150" font-weight="400">
			<tspan x="3300" style="font-kerning:none">80000</tspan>
		</text>
		<text x="3851" dominant-baseline="auto" y="4322" fill="black" font-family="Arial,'MS PGothic',SimSun" font-size="150" font-weight="400">
			<tspan x="3851" style="font-kerning:none">100000</tspan>
		</text>
		<text x="4443" dominant-baseline="auto" y="4322" fill="black" font-family="Arial,'MS PGothic',SimSun" font-size="150" font-weight="400">
			<tspan x="4443" style="font-kerning:none">120000</tspan>
		</text>
		<text x="5036" dominant-baseline="auto" y="4322" fill="black" font-family="Arial,'MS PGothic',SimSun" font-size="150" font-weight="400">
			<tspan x="5036" style="font-kerning:none">140000</tspan>
		</text>
		<text x="939" dominant-baseline="auto" y="4133" fill="black" font-family="Arial,'MS PGothic',SimSun" font-size="150" font-weight="400">
			<tspan x="939" style="font-kerning:none">0</tspan>
		</text>
		<text x="856" dominant-baseline="auto" y="3493" fill="black" font-family="Arial,'MS PGothic',SimSun" font-size="150" font-weight="400">
			<tspan x="856" style="font-kerning:none">20</tspan>
		</text>
		<text x="856" dominant-baseline="auto" y="2853" fill="black" font-family="Arial,'MS PGothic',SimSun" font-size="150" font-weight="400">
			<tspan x="856" style="font-kerning:none">40</tspan>
		</text>
		<text x="856" dominant-baseline="auto" y="2214" fill="black" font-family="Arial,'MS PGothic',SimSun" font-size="150" font-weight="400">
			<tspan x="856" style="font-kerning:none">60</tspan>
		</text>
		<text x="856" dominant-baseline="auto" y="1574" fill="black" font-family="Arial,'MS PGothic',SimSun" font-size="150" font-weight="400">
			<tspan x="856" style="font-kerning:none">80</tspan>
		</text>
		<text x="773" dominant-baseline="auto" y="934" fill="black" font-family="Arial,'MS PGothic',SimSun" font-size="150" font-weight="400">
			<tspan x="773" style="font-kerning:none">100</tspan>
		</text>
		<text x="0" dominant-baseline="auto" y="0" fill="black" font-family="Arial,'MS PGothic',SimSun" font-size="184" font-weight="400" transform="matrix(-1.83698e-16 -1 0.999999 -1.83698e-16 696 3001)">
			<tspan x="0" style="font-kerning:none">number_of_cells</tspan>
		</text>
		<text x="2854" dominant-baseline="auto" y="4605" fill="black" font-family="Arial,'MS PGothic',SimSun" font-size="184" font-weight="400">
			<tspan x="2854" style="font-kerning:none">Timestamp</tspan>
		</text>
		<polygon points="3706,240 6115,240 6115,720 3706,720" shape-rendering="crispEdges" fill="white" fill-rule="evenodd" style="stroke: black;stroke-width: 4;stroke-linecap:square;stroke-linejoin:miter;stroke-miterlimit:10"/>
		<polyline points="3731,367 4141,367" style="stroke: #515151;stroke-width: 8;stroke-linecap:round;stroke-linejoin:round" fill="none"/>
		<text x="4141" dominant-baseline="auto" y="430" fill="black" font-family="Arial,'MS PGothic',SimSun" font-size="184" font-weight="400">
			<tspan x="4141" style="white-space:pre;font-kerning:none" xml:space="preserve"> </tspan>
		</text>
		<text x="4192" dominant-baseline="auto" y="430" fill="black" font-family="Arial,'MS PGothic',SimSun" font-size="184" font-weight="400">
			<tspan x="4192" style="font-kerning:none">number_of_cells</tspan>
		</text>
		<defs>
			<linearGradient gradientUnits="userSpaceOnUse" x1="3734" y1="494" x2="4139" y2="494" gradientTransform="matrix(-1.54321e-06 0.493827 -2.02501 -1.92902e-07 5139.35 -1349.96)" id="Grad_2">
				<stop offset="0" stop-color="#eff821"/>
				<stop offset="0.00392156" stop-color="#eef720"/>
				<stop offset="0.0313725" stop-color="#eef720"/>
				<stop offset="0.0352941" stop-color="#eef620"/>
				<stop offset="0.0392156" stop-color="#edf620"/>
				<stop offset="0.062745" stop-color="#edf620"/>
				<stop offset="0.0666666" stop-color="#ecf520"/>
				<stop offset="0.0823529" stop-color="#ecf520"/>
				<stop offset="0.0862745" stop-color="#ecf420"/>
				<stop offset="0.090196" stop-color="#ebf420"/>
				<stop offset="0.10196" stop-color="#ebf420"/>
				<stop offset="0.105882" stop-color="#ebf320"/>
				<stop offset="0.109803" stop-color="#eaf320"/>
				<stop offset="0.121568" stop-color="#eaf320"/>
				<stop offset="0.12549" stop-color="#eaf220"/>
				<stop offset="0.129411" stop-color="#e9f220"/>
				<stop offset="0.133333" stop-color="#e9f21f"/>
				<stop offset="0.137254" stop-color="#e9f21f"/>
				<stop offset="0.141176" stop-color="#e9f11f"/>
				<stop offset="0.145098" stop-color="#e8f11f"/>
				<stop offset="0.152941" stop-color="#e8f11f"/>
				<stop offset="0.156862" stop-color="#e7f01f"/>
				<stop offset="0.164705" stop-color="#e7f01f"/>
				<stop offset="0.168627" stop-color="#e7ef1f"/>
				<stop offset="0.172549" stop-color="#e6ef1f"/>
				<stop offset="0.17647" stop-color="#e6ef1f"/>
				<stop offset="0.180392" stop-color="#e6ee1f"/>
				<stop offset="0.184313" stop-color="#e5ee1f"/>
				<stop offset="0.188235" stop-color="#e5ee1f"/>
				<stop offset="0.192156" stop-color="#e5ed1f"/>
				<stop offset="0.196078" stop-color="#e4ed1f"/>
				<stop offset="0.199999" stop-color="#e4ed1f"/>
				<stop offset="0.203921" stop-color="#e4ec1e"/>
				<stop offset="0.207843" stop-color="#e3ec1e"/>
				<stop offset="0.211764" stop-color="#e3eb1e"/>
				<stop offset="0.215686" stop-color="#e3eb1e"/>
				<stop offset="0.219607" stop-color="#e2eb1e"/>
				<stop offset="0.223529" stop-color="#e2ea1e"/>
				<stop offset="0.22745" stop-color="#e1ea1e"/>
				<stop offset="0.231372" stop-color="#e1e91e"/>
				<stop offset="0.235294" stop-color="#e0e91e"/>
				<stop offset="0.239215" stop-color="#e0e91e"/>
				<stop offset="0.243137" stop-color="#e0e81e"/>
				<stop offset="0.247058" stop-color="#dfe81e"/>
				<stop offset="0.25098" stop-color="#dfe71e"/>
				<stop offset="0.254901" stop-color="#dee71d"/>
				<stop offset="0.258823" stop-color="#dee61d"/>
				<stop offset="0.262745" stop-color="#dde61d"/>
				<stop offset="0.266666" stop-color="#dde51d"/>
				<stop offset="0.270588" stop-color="#dce51d"/>
				<stop offset="0.274509" stop-color="#dce41d"/>
				<stop offset="0.278431" stop-color="#dbe41d"/>
				<stop offset="0.282352" stop-color="#dbe31d"/>
				<stop offset="0.286274" stop-color="#dae21d"/>
				<stop offset="0.290196" stop-color="#dae21d"/>
				<stop offset="0.294117" stop-color="#d9e11d"/>
				<stop offset="0.298039" stop-color="#d9e11c"/>
				<stop offset="0.30196" stop-color="#d8e01c"/>
				<stop offset="0.305882" stop-color="#d7e01c"/>
				<stop offset="0.309803" stop-color="#d7df1c"/>
				<stop offset="0.313725" stop-color="#d6de1c"/>
				<stop offset="0.317647" stop-color="#d6de1c"/>
				<stop offset="0.321568" stop-color="#d5dd1c"/>
				<stop offset="0.32549" stop-color="#d4dc1c"/>
				<stop offset="0.329411" stop-color="#d4dc1c"/>
				<stop offset="0.333333" stop-color="#d3db1b"/>
				<stop offset="0.337254" stop-color="#d2da1b"/>
				<stop offset="0.341176" stop-color="#d2da1b"/>
				<stop offset="0.345098" stop-color="#d1d91b"/>
				<stop offset="0.349019" stop-color="#d0d81b"/>
				<stop offset="0.352941" stop-color="#d0d81b"/>
				<stop offset="0.356862" stop-color="#cfd71b"/>
				<stop offset="0.360784" stop-color="#ced61b"/>
				<stop offset="0.364705" stop-color="#ced51a"/>
				<stop offset="0.368627" stop-color="#cdd51a"/>
				<stop offset="0.372548" stop-color="#ccd41a"/>
				<stop offset="0.37647" stop-color="#cbd31a"/>
				<stop offset="0.380392" stop-color="#cbd21a"/>
				<stop offset="0.384313" stop-color="#cad21a"/>
				<stop offset="0.388235" stop-color="#c9d11a"/>
				<stop offset="0.392156" stop-color="#c8d019"/>
				<stop offset="0.396078" stop-color="#c7cf19"/>
				<stop offset="0.399999" stop-color="#c7ce19"/>
				<stop offset="0.403921" stop-color="#c6cd19"/>
				<stop offset="0.407843" stop-color="#c5cd19"/>
				<stop offset="0.411764" stop-color="#c4cc19"/>
				<stop offset="0.415686" stop-color="#c3cb18"/>
				<stop offset="0.419607" stop-color="#c2ca18"/>
				<stop offset="0.423529" stop-color="#c2c918"/>
				<stop offset="0.42745" stop-color="#c1c818"/>
				<stop offset="0.431372" stop-color="#c0c718"/>
				<stop offset="0.435294" stop-color="#bfc618"/>
				<stop offset="0.439215" stop-color="#bec518"/>
				<stop offset="0.443137" stop-color="#bdc417"/>
				<stop offset="0.447058" stop-color="#bcc317"/>
				<stop offset="0.45098" stop-color="#bbc317"/>
				<stop offset="0.454901" stop-color="#bac217"/>
				<stop offset="0.458823" stop-color="#b9c117"/>
				<stop offset="0.462745" stop-color="#b8c016"/>
				<stop offset="0.466666" stop-color="#b8bf16"/>
				<stop offset="0.470588" stop-color="#b7be16"/>
				<stop offset="0.474509" stop-color="#b6bd16"/>
				<stop offset="0.478431" stop-color="#b5bc16"/>
				<stop offset="0.482352" stop-color="#b4bb16"/>
				<stop offset="0.486274" stop-color="#b3b915"/>
				<stop offset="0.490196" stop-color="#b2b815"/>
				<stop offset="0.494117" stop-color="#b1b715"/>
				<stop offset="0.498039" stop-color="#b0b615"/>
				<stop offset="0.50196" stop-color="#afb515"/>
				<stop offset="0.505882" stop-color="#adb414"/>
				<stop offset="0.509803" stop-color="#acb314"/>
				<stop offset="0.513725" stop-color="#abb214"/>
				<stop offset="0.517647" stop-color="#aab114"/>
				<stop offset="0.521568" stop-color="#a9b014"/>
				<stop offset="0.52549" stop-color="#a8af13"/>
				<stop offset="0.529411" stop-color="#a7ae13"/>
				<stop offset="0.533333" stop-color="#a6ac13"/>
				<stop offset="0.537254" stop-color="#a5ab13"/>
				<stop offset="0.541176" stop-color="#a4aa13"/>
				<stop offset="0.545098" stop-color="#a3a912"/>
				<stop offset="0.549019" stop-color="#a1a812"/>
				<stop offset="0.552941" stop-color="#a0a712"/>
				<stop offset="0.556862" stop-color="#9fa512"/>
				<stop offset="0.560784" stop-color="#9ea412"/>
				<stop offset="0.564705" stop-color="#9da311"/>
				<stop offset="0.568627" stop-color="#9ca211"/>
				<stop offset="0.572548" stop-color="#9ba111"/>
				<stop offset="0.57647" stop-color="#999f11"/>
				<stop offset="0.580392" stop-color="#989e10"/>
				<stop offset="0.584313" stop-color="#979d10"/>
				<stop offset="0.588235" stop-color="#969c10"/>
				<stop offset="0.592156" stop-color="#959b10"/>
				<stop offset="0.596078" stop-color="#949910"/>
				<stop offset="0.599999" stop-color="#92980f"/>
				<stop offset="0.603921" stop-color="#91970f"/>
				<stop offset="0.607843" stop-color="#90960f"/>
				<stop offset="0.611764" stop-color="#8f940f"/>
				<stop offset="0.615686" stop-color="#8d930e"/>
				<stop offset="0.619607" stop-color="#8c920e"/>
				<stop offset="0.623529" stop-color="#8b900e"/>
				<stop offset="0.62745" stop-color="#8a8f0e"/>
				<stop offset="0.631372" stop-color="#898e0e"/>
				<stop offset="0.635294" stop-color="#878d0d"/>
				<stop offset="0.639215" stop-color="#868b0d"/>
				<stop offset="0.643137" stop-color="#858a0d"/>
				<stop offset="0.647058" stop-color="#84890d"/>
				<stop offset="0.65098" stop-color="#82870c"/>
				<stop offset="0.654901" stop-color="#81860c"/>
				<stop offset="0.658823" stop-color="#80850c"/>
				<stop offset="0.662745" stop-color="#7f840c"/>
				<stop offset="0.666666" stop-color="#7d820b"/>
				<stop offset="0.670588" stop-color="#7c810b"/>
				<stop offset="0.674509" stop-color="#7b800b"/>
				<stop offset="0.678431" stop-color="#797e0b"/>
				<stop offset="0.682352" stop-color="#787d0b"/>
				<stop offset="0.686274" stop-color="#777c0a"/>
				<stop offset="0.690196" stop-color="#767a0a"/>
				<stop offset="0.694117" stop-color="#74790a"/>
				<stop offset="0.698039" stop-color="#73780a"/>
				<stop offset="0.70196" stop-color="#727609"/>
				<stop offset="0.705882" stop-color="#707509"/>
				<stop offset="0.709803" stop-color="#6f7409"/>
				<stop offset="0.713725" stop-color="#6e7209"/>
				<stop offset="0.717647" stop-color="#6d7108"/>
				<stop offset="0.721568" stop-color="#6b7008"/>
				<stop offset="0.72549" stop-color="#6a6e08"/>
				<stop offset="0.729411" stop-color="#696d08"/>
				<stop offset="0.733333" stop-color="#676c08"/>
				<stop offset="0.737254" stop-color="#666a07"/>
				<stop offset="0.741176" stop-color="#656907"/>
				<stop offset="0.745097" stop-color="#636707"/>
				<stop offset="0.749019" stop-color="#626607"/>
				<stop offset="0.752941" stop-color="#616506"/>
				<stop offset="0.756862" stop-color="#5f6306"/>
				<stop offset="0.760784" stop-color="#5e6206"/>
				<stop offset="0.764705" stop-color="#5d6106"/>
				<stop offset="0.768627" stop-color="#5c5f06"/>
				<stop offset="0.772548" stop-color="#5a5e06"/>
				<stop offset="0.77647" stop-color="#595d05"/>
				<stop offset="0.780392" stop-color="#585b05"/>
				<stop offset="0.784313" stop-color="#565a05"/>
				<stop offset="0.788235" stop-color="#555905"/>
				<stop offset="0.792156" stop-color="#545705"/>
				<stop offset="0.796078" stop-color="#525605"/>
				<stop offset="0.799999" stop-color="#515404"/>
				<stop offset="0.803921" stop-color="#505304"/>
				<stop offset="0.807843" stop-color="#4e5204"/>
				<stop offset="0.811764" stop-color="#4d5004"/>
				<stop offset="0.815686" stop-color="#4c4f04"/>
				<stop offset="0.819607" stop-color="#4a4e04"/>
				<stop offset="0.823529" stop-color="#494c03"/>
				<stop offset="0.82745" stop-color="#484b03"/>
				<stop offset="0.831372" stop-color="#474a03"/>
				<stop offset="0.835294" stop-color="#454803"/>
				<stop offset="0.839215" stop-color="#444703"/>
				<stop offset="0.843137" stop-color="#434503"/>
				<stop offset="0.847058" stop-color="#414403"/>
				<stop offset="0.85098" stop-color="#404303"/>
				<stop offset="0.854901" stop-color="#3f4102"/>
				<stop offset="0.858823" stop-color="#3d4002"/>
				<stop offset="0.862745" stop-color="#3c3f02"/>
				<stop offset="0.866666" stop-color="#3b3d02"/>
				<stop offset="0.870588" stop-color="#393c02"/>
				<stop offset="0.874509" stop-color="#383a02"/>
				<stop offset="0.878431" stop-color="#373902"/>
				<stop offset="0.882352" stop-color="#353802"/>
				<stop offset="0.886274" stop-color="#343602"/>
				<stop offset="0.890196" stop-color="#323501"/>
				<stop offset="0.894117" stop-color="#313301"/>
				<stop offset="0.898039" stop-color="#303201"/>
				<stop offset="0.90196" stop-color="#2e3001"/>
				<stop offset="0.905882" stop-color="#2d2f01"/>
				<stop offset="0.909803" stop-color="#2b2e01"/>
				<stop offset="0.913725" stop-color="#2a2c01"/>
				<stop offset="0.917647" stop-color="#292b01"/>
				<stop offset="0.921568" stop-color="#272901"/>
				<stop offset="0.92549" stop-color="#262801"/>
				<stop offset="0.929411" stop-color="#242601"/>
				<stop offset="0.933333" stop-color="#232400"/>
				<stop offset="0.937254" stop-color="#212300"/>
				<stop offset="0.941176" stop-color="#202100"/>
				<stop offset="0.945097" stop-color="#1e2000"/>
				<stop offset="0.949019" stop-color="#1c1e00"/>
				<stop offset="0.952941" stop-color="#1b1c00"/>
				<stop offset="0.956862" stop-color="#191a00"/>
				<stop offset="0.960784" stop-color="#171900"/>
				<stop offset="0.964705" stop-color="#151700"/>
				<stop offset="0.968627" stop-color="#131500"/>
				<stop offset="0.972548" stop-color="#111200"/>
				<stop offset="0.97647" stop-color="#0f1000"/>
				<stop offset="0.980392" stop-color="#0d0e00"/>
				<stop offset="0.984313" stop-color="#0a0b00"/>
				<stop offset="0.988235" stop-color="#070800"/>
				<stop offset="0.992156" stop-color="#050500"/>
				<stop offset="0.996078" stop-color="#020200"/>
				<stop offset="1" stop-color="#000000"/>
			</linearGradient>
		</defs>
		<rect shape-rendering="crispEdges" x="3734" y="494" width="404" height="199" fill="url(#Grad_2)"/>
		<polygon points="3734,494 4138,494 4138,693 3734,693" fill="none" style="stroke-width: 8;stroke-linecap: round;stroke-dashoffset: 0;stroke-miterlimit:10;stroke-linejoin: round;stroke: #515151"/>
		<text x="4141" dominant-baseline="auto" y="656" fill="black" font-family="Arial,'MS PGothic',SimSun" font-size="184" font-weight="400">
			<tspan x="4141" style="white-space:pre;font-kerning:none" xml:space="preserve"> </tspan>
		</text>
		<text x="4192" dominant-baseline="auto" y="656" fill="black" font-family="Arial,'MS PGothic',SimSun" font-size="184" font-weight="400">
			<tspan x="4192" style="white-space:pre;font-kerning:none" xml:space="preserve">Below number_of_cells</tspan>
		</text>
		<text x="1328" dominant-baseline="auto" y="910" fill="#00FFFF" font-family="Arial,'MS PGothic',SimSun" font-size="170" font-weight="400">
			<tspan x="1328 1489 1650 1868">demo</tspan>
		</text>
		<text x="2407" dominant-baseline="auto" y="910" fill="#00FFFF" font-family="Arial,'MS PGothic',SimSun" font-size="170" font-weight="400">
			<tspan x="2407 2568 2729 2947">demo</tspan>
		</text>
		<text x="3486" dominant-baseline="auto" y="910" fill="#00FFFF" font-family="Arial,'MS PGothic',SimSun" font-size="170" font-weight="400">
			<tspan x="3486 3647 3808 4026">demo</tspan>
		</text>
		<text x="4565" dominant-baseline="auto" y="910" fill="#00FFFF" font-family="Arial,'MS PGothic',SimSun" font-size="170" font-weight="400">
			<tspan x="4565 4726 4887 5105">demo</tspan>
		</text>
		<text x="1328" dominant-baseline="auto" y="1288" fill="#00FFFF" font-family="Arial,'MS PGothic',SimSun" font-size="170" font-weight="400">
			<tspan x="1328 1489 1650 1868">demo</tspan>
		</text>
		<text x="2407" dominant-baseline="auto" y="1288" fill="#00FFFF" font-family="Arial,'MS PGothic',SimSun" font-size="170" font-weight="400">
			<tspan x="2407 2568 2729 2947">demo</tspan>
		</text>
		<text x="3486" dominant-baseline="auto" y="1288" fill="#00FFFF" font-family="Arial,'MS PGothic',SimSun" font-size="170" font-weight="400">
			<tspan x="3486 3647 3808 4026">demo</tspan>
		</text>
		<text x="4565" dominant-baseline="auto" y="1288" fill="#00FFFF" font-family="Arial,'MS PGothic',SimSun" font-size="170" font-weight="400">
			<tspan x="4565 4726 4887 5105">demo</tspan>
		</text>
		<text x="1328" dominant-baseline="auto" y="1666" fill="#00FFFF" font-family="Arial,'MS PGothic',SimSun" font-size="170" font-weight="400">
			<tspan x="1328 1489 1650 1868">demo</tspan>
		</text>
		<text x="2407" dominant-baseline="auto" y="1666" fill="#00FFFF" font-family="Arial,'MS PGothic',SimSun" font-size="170" font-weight="400">
			<tspan x="2407 2568 2729 2947">demo</tspan>
		</text>
		<text x="3486" dominant-baseline="auto" y="1666" fill="#00FFFF" font-family="Arial,'MS PGothic',SimSun" font-size="170" font-weight="400">
			<tspan x="3486 3647 3808 4026">demo</tspan>
		</text>
		<text x="4565" dominant-baseline="auto" y="1666" fill="#00FFFF" font-family="Arial,'MS PGothic',SimSun" font-size="170" font-weight="400">
			<tspan x="4565 4726 4887 5105">demo</tspan>
		</text>
		<text x="1328" dominant-baseline="auto" y="2044" fill="#00FFFF" font-family="Arial,'MS PGothic',SimSun" font-size="170" font-weight="400">
			<tspan x="1328 1489 1650 1868">demo</tspan>
		</text>
		<text x="2407" dominant-baseline="auto" y="2044" fill="#00FFFF" font-family="Arial,'MS PGothic',SimSun" font-size="170" font-weight="400">
			<tspan x="2407 2568 2729 2947">demo</tspan>
		</text>
		<text x="3486" dominant-baseline="auto" y="2044" fill="#00FFFF" font-family="Arial,'MS PGothic',SimSun" font-size="170" font-weight="400">
			<tspan x="3486 3647 3808 4026">demo</tspan>
		</text>
		<text x="4565" dominant-baseline="auto" y="2044" fill="#00FFFF" font-family="Arial,'MS PGothic',SimSun" font-size="170" font-weight="400">
			<tspan x="4565 4726 4887 5105">demo</tspan>
		</text>
		<text x="1328" dominant-baseline="auto" y="2422" fill="#00FFFF" font-family="Arial,'MS PGothic',SimSun" font-size="170" font-weight="400">
			<tspan x="1328 1489 1650 1868">demo</tspan>
		</text>
		<text x="2407" dominant-baseline="auto" y="2422" fill="#00FFFF" font-family="Arial,'MS PGothic',SimSun" font-size="170" font-weight="400">
			<tspan x="2407 2568 2729 2947">demo</tspan>
		</text>
		<text x="3486" dominant-baseline="auto" y="2422" fill="#00FFFF" font-family="Arial,'MS PGothic',SimSun" font-size="170" font-weight="400">
			<tspan x="3486 3647 3808 4026">demo</tspan>
		</text>
		<text x="4565" dominant-baseline="auto" y="2422" fill="#00FFFF" font-family="Arial,'MS PGothic',SimSun" font-size="170" font-weight="400">
			<tspan x="4565 4726 4887 5105">demo</tspan>
		</text>
		<text x="1328" dominant-baseline="auto" y="2800" fill="#00FFFF" font-family="Arial,'MS PGothic',SimSun" font-size="170" font-weight="400">
			<tspan x="1328 1489 1650 1868">demo</tspan>
		</text>
		<text x="2407" dominant-baseline="auto" y="2800" fill="#00FFFF" font-family="Arial,'MS PGothic',SimSun" font-size="170" font-weight="400">
			<tspan x="2407 2568 2729 2947">demo</tspan>
		</text>
		<text x="3486" dominant-baseline="auto" y="2800" fill="#00FFFF" font-family="Arial,'MS PGothic',SimSun" font-size="170" font-weight="400">
			<tspan x="3486 3647 3808 4026">demo</tspan>
		</text>
		<text x="4565" dominant-baseline="auto" y="2800" fill="#00FFFF" font-family="Arial,'MS PGothic',SimSun" font-size="170" font-weight="400">
			<tspan x="4565 4726 4887 5105">demo</tspan>
		</text>
		<text x="1328" dominant-baseline="auto" y="3178" fill="#00FFFF" font-family="Arial,'MS PGothic',SimSun" font-size="170" font-weight="400">
			<tspan x="1328 1489 1650 1868">demo</tspan>
		</text>
		<text x="2407" dominant-baseline="auto" y="3178" fill="#00FFFF" font-family="Arial,'MS PGothic',SimSun" font-size="170" font-weight="400">
			<tspan x="2407 2568 2729 2947">demo</tspan>
		</text>
		<text x="3486" dominant-baseline="auto" y="3178" fill="#00FFFF" font-family="Arial,'MS PGothic',SimSun" font-size="170" font-weight="400">
			<tspan x="3486 3647 3808 4026">demo</tspan>
		</text>
		<text x="4565" dominant-baseline="auto" y="3178" fill="#00FFFF" font-family="Arial,'MS PGothic',SimSun" font-size="170" font-weight="400">
			<tspan x="4565 4726 4887 5105">demo</tspan>
		</text>
		<text x="1328" dominant-baseline="auto" y="3556" fill="#00FFFF" font-family="Arial,'MS PGothic',SimSun" font-size="170" font-weight="400">
			<tspan x="1328 1489 1650 1868">demo</tspan>
		</text>
		<text x="2407" dominant-baseline="auto" y="3556" fill="#00FFFF" font-family="Arial,'MS PGothic',SimSun" font-size="170" font-weight="400">
			<tspan x="2407 2568 2729 2947">demo</tspan>
		</text>
		<text x="3486" dominant-baseline="auto" y="3556" fill="#00FFFF" font-family="Arial,'MS PGothic',SimSun" font-size="170" font-weight="400">
			<tspan x="3486 3647 3808 4026">demo</tspan>
		</text>
		<text x="4565" dominant-baseline="auto" y="3556" fill="#00FFFF" font-family="Arial,'MS PGothic',SimSun" font-size="170" font-weight="400">
			<tspan x="4565 4726 4887 5105">demo</tspan>
		</text>
		<text x="1328" dominant-baseline="auto" y="3934" fill="#00FFFF" font-family="Arial,'MS PGothic',SimSun" font-size="170" font-weight="400">
			<tspan x="1328 1489 1650 1868">demo</tspan>
		</text>
		<text x="2407" dominant-baseline="auto" y="3934" fill="#00FFFF" font-family="Arial,'MS PGothic',SimSun" font-size="170" font-weight="400">
			<tspan x="2407 2568 2729 2947">demo</tspan>
		</text>
		<text x="3486" dominant-baseline="auto" y="3934" fill="#00FFFF" font-family="Arial,'MS PGothic',SimSun" font-size="170" font-weight="400">
			<tspan x="3486 3647 3808 4026">demo</tspan>
		</text>
		<text x="4565" dominant-baseline="auto" y="3934" fill="#00FFFF" font-family="Arial,'MS PGothic',SimSun" font-size="170" font-weight="400">
			<tspan x="4565 4726 4887 5105">demo</tspan>
		</text>
	</svg>
</svg>

